<svg width="227" height="228" viewBox="0 0 227 228" fill="none" xmlns="http://www.w3.org/2000/svg">
<rect width="227" height="228" fill="#E5E5E5"/>
<rect width="1512" height="982" transform="translate(-1181 -353)" fill="white"/>
<rect width="227" height="227.791" rx="18" fill="#2291F1" fill-opacity="0.14"/>
<path d="M106.766 109.797L103.523 97.7266L93.7969 61.5156L90.5547 49.4453C90.396 48.8501 90.1215 48.2919 89.747 47.8028C89.3724 47.3138 88.9051 46.9033 88.3718 46.5949C87.8385 46.2865 87.2497 46.0863 86.6389 46.0057C86.0282 45.9251 85.4076 45.9656 84.8125 46.125L72.7422 49.3672C72.2415 49.4945 71.766 49.7059 71.3359 49.9922C70.9864 49.1281 70.3872 48.3878 69.6148 47.866C68.8425 47.3441 67.9321 47.0644 67 47.0625H54.5C53.344 47.0635 52.2299 47.4953 51.375 48.2734C50.5201 47.4953 49.406 47.0635 48.25 47.0625H35.75C34.5068 47.0625 33.3145 47.5564 32.4354 48.4354C31.5564 49.3145 31.0625 50.5068 31.0625 51.75V114.25C31.0625 115.493 31.5564 116.685 32.4354 117.565C33.3145 118.444 34.5068 118.937 35.75 118.937H48.25C49.406 118.936 50.5201 118.505 51.375 117.727C52.2299 118.505 53.344 118.936 54.5 118.937H67C68.2432 118.937 69.4355 118.444 70.3146 117.565C71.1936 116.685 71.6875 115.493 71.6875 114.25V63.4688L72.6641 67.1797L82.3906 103.391L85.6328 115.461C85.8936 116.462 86.4808 117.347 87.3016 117.977C88.1223 118.607 89.1296 118.945 90.1641 118.937C90.5729 118.941 90.9803 118.888 91.375 118.781L103.445 115.539C104.043 115.384 104.603 115.11 105.093 114.735C105.583 114.359 105.992 113.889 106.297 113.352C106.914 112.274 107.082 110.997 106.766 109.797ZM76.1016 67.8828L91.1797 63.8203L100.086 97.0234L85.0078 101.086L76.1016 67.8828ZM54.5 50.1875H67C67.4144 50.1875 67.8118 50.3521 68.1049 50.6451C68.3979 50.9382 68.5625 51.3356 68.5625 51.75V100.187H52.9375V51.75C52.9375 51.3356 53.1021 50.9382 53.3951 50.6451C53.6882 50.3521 54.0856 50.1875 54.5 50.1875ZM35.75 50.1875H48.25C48.6644 50.1875 49.0618 50.3521 49.3549 50.6451C49.6479 50.9382 49.8125 51.3356 49.8125 51.75V62.6875H34.1875V51.75C34.1875 51.3356 34.3521 50.9382 34.6451 50.6451C34.9382 50.3521 35.3356 50.1875 35.75 50.1875ZM48.25 115.812H35.75C35.3356 115.812 34.9382 115.648 34.6451 115.355C34.3521 115.062 34.1875 114.664 34.1875 114.25V65.8125H49.8125V114.25C49.8125 114.664 49.6479 115.062 49.3549 115.355C49.0618 115.648 48.6644 115.812 48.25 115.812ZM67 115.812H54.5C54.0856 115.812 53.6882 115.648 53.3951 115.355C53.1021 115.062 52.9375 114.664 52.9375 114.25V103.312H68.5625V114.25C68.5625 114.664 68.3979 115.062 68.1049 115.355C67.8118 115.648 67.4144 115.812 67 115.812ZM72.625 53.1172C72.7213 52.9352 72.8543 52.7753 73.0157 52.6475C73.1771 52.5197 73.3633 52.4269 73.5625 52.375L85.6328 49.1328H86.0234C86.3665 49.1282 86.7016 49.2366 86.9769 49.4413C87.2523 49.6461 87.4526 49.9357 87.5469 50.2656L90.3984 60.8516L75.2812 64.8359L72.4688 54.2891C72.4054 54.0945 72.3866 53.8882 72.4137 53.6854C72.4407 53.4825 72.5129 53.2884 72.625 53.1172ZM103.562 111.789C103.358 112.148 103.022 112.414 102.625 112.531L90.5547 115.773C90.1511 115.869 89.726 115.805 89.3689 115.593C89.0119 115.382 88.7508 115.041 88.6406 114.641L85.7891 104.094L100.906 100.031L103.719 110.617C103.782 110.812 103.801 111.018 103.774 111.221C103.747 111.424 103.675 111.618 103.562 111.789Z" fill="#2291F1"/>
<path d="M84.536 193.032C85.7867 193.237 86.7947 193.797 87.56 194.712C88.3253 195.627 88.708 196.681 88.708 197.876C88.708 198.828 88.4467 199.696 87.924 200.48C87.42 201.264 86.6827 201.88 85.712 202.328C84.76 202.776 83.6493 203 82.38 203H75.1V183.596H82.044C83.3693 183.596 84.4987 183.82 85.432 184.268C86.3653 184.716 87.0653 185.332 87.532 186.116C88.0173 186.881 88.26 187.759 88.26 188.748C88.26 189.831 87.9333 190.736 87.28 191.464C86.6267 192.173 85.712 192.696 84.536 193.032ZM77.648 192.024H81.932C83.108 192.024 84.0227 191.744 84.676 191.184C85.348 190.605 85.684 189.831 85.684 188.86C85.684 187.871 85.348 187.087 84.676 186.508C84.0227 185.929 83.108 185.64 81.932 185.64H77.648V192.024ZM82.24 200.984C83.472 200.984 84.4333 200.676 85.124 200.06C85.8333 199.444 86.188 198.595 86.188 197.512C86.188 196.448 85.8053 195.608 85.04 194.992C84.2933 194.376 83.2947 194.068 82.044 194.068H77.648V200.984H82.24ZM98.9925 187.376C100.449 187.376 101.765 187.703 102.941 188.356C104.117 189.009 105.041 189.943 105.713 191.156C106.403 192.369 106.749 193.76 106.749 195.328C106.749 196.877 106.394 198.259 105.685 199.472C104.975 200.667 104.014 201.6 102.801 202.272C101.587 202.925 100.243 203.252 98.7685 203.252C97.3312 203.252 96.0339 202.925 94.8765 202.272C93.7379 201.619 92.8419 200.695 92.1885 199.5C91.5539 198.287 91.2365 196.896 91.2365 195.328C91.2365 193.741 91.5725 192.351 92.2445 191.156C92.9352 189.943 93.8685 189.009 95.0445 188.356C96.2205 187.703 97.5365 187.376 98.9925 187.376ZM98.9085 189.476C97.9752 189.476 97.1259 189.7 96.3605 190.148C95.5952 190.596 94.9792 191.259 94.5125 192.136C94.0645 193.013 93.8405 194.077 93.8405 195.328C93.8405 196.56 94.0552 197.615 94.4845 198.492C94.9325 199.369 95.5299 200.032 96.2765 200.48C97.0232 200.928 97.8539 201.152 98.7685 201.152C99.7019 201.152 100.57 200.928 101.373 200.48C102.194 200.013 102.857 199.341 103.361 198.464C103.865 197.587 104.117 196.541 104.117 195.328C104.117 194.096 103.874 193.041 103.389 192.164C102.922 191.268 102.287 190.596 101.485 190.148C100.701 189.7 99.8419 189.476 98.9085 189.476ZM116.684 187.376C118.14 187.376 119.456 187.703 120.632 188.356C121.808 189.009 122.732 189.943 123.404 191.156C124.095 192.369 124.44 193.76 124.44 195.328C124.44 196.877 124.085 198.259 123.376 199.472C122.667 200.667 121.705 201.6 120.492 202.272C119.279 202.925 117.935 203.252 116.46 203.252C115.023 203.252 113.725 202.925 112.568 202.272C111.429 201.619 110.533 200.695 109.88 199.5C109.245 198.287 108.928 196.896 108.928 195.328C108.928 193.741 109.264 192.351 109.936 191.156C110.627 189.943 111.56 189.009 112.736 188.356C113.912 187.703 115.228 187.376 116.684 187.376ZM116.6 189.476C115.667 189.476 114.817 189.7 114.052 190.148C113.287 190.596 112.671 191.259 112.204 192.136C111.756 193.013 111.532 194.077 111.532 195.328C111.532 196.56 111.747 197.615 112.176 198.492C112.624 199.369 113.221 200.032 113.968 200.48C114.715 200.928 115.545 201.152 116.46 201.152C117.393 201.152 118.261 200.928 119.064 200.48C119.885 200.013 120.548 199.341 121.052 198.464C121.556 197.587 121.808 196.541 121.808 195.328C121.808 194.096 121.565 193.041 121.08 192.164C120.613 191.268 119.979 190.596 119.176 190.148C118.392 189.7 117.533 189.476 116.6 189.476ZM132.387 195.272L139.639 203H136.195L130.175 196.252V203H127.627V182.28H130.175V194.432L136.055 187.628H139.639L132.387 195.272ZM147.275 187.376C148.936 187.376 150.252 187.815 151.223 188.692C152.193 189.551 152.725 190.736 152.819 192.248H150.187C150.149 191.389 149.86 190.699 149.319 190.176C148.777 189.653 148.031 189.392 147.079 189.392C146.108 189.392 145.343 189.625 144.783 190.092C144.241 190.54 143.971 191.109 143.971 191.8C143.971 192.379 144.139 192.845 144.475 193.2C144.829 193.536 145.259 193.788 145.763 193.956C146.285 194.124 146.985 194.301 147.863 194.488C148.983 194.749 149.879 195.011 150.551 195.272C151.241 195.515 151.829 195.935 152.315 196.532C152.8 197.111 153.043 197.904 153.043 198.912C153.043 199.752 152.8 200.508 152.315 201.18C151.829 201.833 151.148 202.347 150.271 202.72C149.393 203.075 148.385 203.252 147.247 203.252C145.529 203.252 144.148 202.823 143.103 201.964C142.076 201.105 141.516 199.92 141.423 198.408H144.055C144.092 199.267 144.391 199.957 144.951 200.48C145.529 200.984 146.295 201.236 147.247 201.236C148.292 201.236 149.095 201.021 149.655 200.592C150.233 200.163 150.523 199.593 150.523 198.884C150.523 198.305 150.345 197.848 149.991 197.512C149.655 197.157 149.225 196.896 148.703 196.728C148.18 196.541 147.461 196.345 146.547 196.14C145.445 195.897 144.549 195.655 143.859 195.412C143.187 195.151 142.608 194.749 142.123 194.208C141.656 193.667 141.423 192.92 141.423 191.968C141.423 191.128 141.656 190.363 142.123 189.672C142.608 188.963 143.289 188.403 144.167 187.992C145.063 187.581 146.099 187.376 147.275 187.376Z" fill="#2291F1"/>
<rect x="-1510.5" y="-857.5" width="10661" height="2037" stroke="black" stroke-width="27"/>
</svg>
