<?xml version="1.0" standalone="no"?>
<!DOCTYPE svg PUBLIC "-//W3C//DTD SVG 20010904//EN"
 "http://www.w3.org/TR/2001/REC-SVG-20010904/DTD/svg10.dtd">
<svg version="1.0" xmlns="http://www.w3.org/2000/svg"
 width="25.000000pt" height="25.000000pt" viewBox="0 0 500.000000 500.000000"
 preserveAspectRatio="xMidYMid meet">

<g transform="translate(0.000000,500.000000) scale(0.100000,-0.100000)"
fill="#000000" stroke="none">
<path d="M1188 3854 c-60 -32 -58 -12 -58 -734 0 -725 -2 -703 60 -735 25 -13
106 -15 574 -15 l546 0 32 29 33 29 3 674 c2 492 -1 680 -9 701 -7 15 -23 37
-37 47 -24 19 -43 20 -571 20 -463 -1 -550 -3 -573 -16z m952 -734 l0 -510
-382 2 -383 3 -3 495 c-1 272 0 501 3 508 3 9 90 12 385 12 l380 0 0 -510z"/>
<path d="M2658 3841 l-33 -29 -3 -426 c-2 -369 -1 -430 13 -456 32 -61 21 -60
610 -60 588 0 578 -1 610 60 22 43 22 837 0 880 -32 61 -21 60 -619 60 l-546
0 -32 -29z m967 -471 l0 -255 -380 0 -380 0 -3 258 -2 257 382 -2 383 -3 0
-255z"/>
<path d="M2654 2596 l-34 -34 0 -671 c0 -577 2 -676 15 -701 32 -63 7 -60 603
-60 466 0 547 2 572 15 62 32 60 10 60 735 0 725 2 703 -60 735 -25 13 -107
15 -576 15 l-546 0 -34 -34z m971 -716 l0 -505 -382 -3 -383 -2 0 510 0 510
383 -2 382 -3 0 -505z"/>
<path d="M1186 2111 c-56 -37 -55 -32 -56 -479 0 -350 2 -417 15 -442 32 -61
21 -60 617 -60 596 0 571 -3 603 60 23 44 22 837 0 880 -32 61 -22 60 -612 60
-515 0 -539 -1 -567 -19z m952 -484 l2 -257 -382 2 -383 3 -3 245 c-1 134 0
250 3 257 3 11 82 13 382 11 l378 -3 3 -258z"/>
</g>
</svg>
