<svg width="40" height="40" viewBox="0 0 40 40" fill="none" xmlns="http://www.w3.org/2000/svg">
<rect width="40" height="40" fill="#E5E5E5"/>
<rect width="1512" height="982" transform="translate(-1418 -335)" fill="white"/>
<path d="M0 20C0 31.0457 8.95431 40 20 40C31.0457 40 40 31.0457 40 20C40 8.95431 31.0457 0 20 0C8.95431 0 0 8.95431 0 20Z" fill="#DADDE1"/>
<path d="M0 20C0 31.0457 8.95431 40 20 40C31.0457 40 40 31.0457 40 20C40 8.95431 31.0457 0 20 0C8.95431 0 0 8.95431 0 20Z" fill="#DADDE1"/>
<path d="M27.5689 14.4902L25.5072 12.4322C24.9378 11.8605 24.0194 11.856 23.4592 12.4185L21.8015 14.0832L25.925 18.2038L27.5873 16.5391C28.1429 15.9812 28.1383 15.0619 27.5689 14.4902Z" fill="white"/>
<path d="M13.6694 22.0363C13.5775 22.1095 13.4995 22.201 13.4673 22.3244L12.0255 27.2225C11.9612 27.4375 12.0209 27.6661 12.177 27.8216C12.2918 27.936 12.448 28 12.6087 28C12.6638 28 12.7235 27.9909 12.7786 27.9726L17.6781 26.5319C17.7929 26.4999 17.8801 26.4268 17.9536 26.3444L24.6761 19.6902L20.3735 15.3912L13.6694 22.0363ZM14.3214 26.2575L13.7474 25.6813L14.5602 22.9098L16.6449 23.3397L17.0582 25.4572L14.3214 26.2575Z" fill="white"/>
<rect width="1512" height="982" transform="translate(3853 -366)" fill="white"/>
<rect x="-3412.5" y="-574.5" width="6985" height="1461" stroke="black" stroke-width="27"/>
</svg>
