<svg width="50" height="50" viewBox="0 0 50 50" fill="none" xmlns="http://www.w3.org/2000/svg">
<rect width="50" height="50" fill="#E5E5E5"/>
<rect x="-16.5" y="-11.5" width="627" height="73" rx="13.5" fill="#FF0000" fill-opacity="0.22" stroke="#FF0000"/>
<rect width="50" height="50" rx="8" fill="#FF0000"/>
<path d="M22.1498 11.4334L8.03312 35.0001C7.74207 35.5041 7.58807 36.0756 7.58644 36.6576C7.58481 37.2397 7.73561 37.812 8.02383 38.3176C8.31206 38.8233 8.72767 39.2447 9.2293 39.5398C9.73094 39.835 10.3011 39.9937 10.8831 40.0001H39.1165C39.6985 39.9937 40.2686 39.835 40.7703 39.5398C41.2719 39.2447 41.6875 38.8233 41.9757 38.3176C42.264 37.812 42.4148 37.2397 42.4131 36.6576C42.4115 36.0756 42.2575 35.5041 41.9665 35.0001L27.8498 11.4334C27.5527 10.9436 27.1343 10.5386 26.6351 10.2576C26.1359 9.97651 25.5727 9.82886 24.9998 9.82886C24.4269 9.82886 23.8637 9.97651 23.3645 10.2576C22.8653 10.5386 22.4469 10.9436 22.1498 11.4334V11.4334Z" stroke="white" stroke-width="4" stroke-linecap="round" stroke-linejoin="round"/>
<path d="M25 20V26.6667" stroke="white" stroke-width="4" stroke-linecap="round" stroke-linejoin="round"/>
<path d="M25 33.3333H25.0167" stroke="white" stroke-width="4" stroke-linecap="round" stroke-linejoin="round"/>
<rect x="-100.5" y="-89.5" width="885" height="845" stroke="black" stroke-width="11"/>
</svg>
