<svg id="Layer_1" data-name="Layer 1" xmlns="http://www.w3.org/2000/svg" xmlns:xlink="http://www.w3.org/1999/xlink" viewBox="0 0 609.36 482.9"><defs><style>.cls-1{fill:#2590ca;}.cls-2{fill:#27aae1;}.cls-3{fill:#5ccae8;}.cls-4{fill:#f8a71b;}.cls-5{fill:url(#New_Gradient_Swatch_copy_6);}.cls-6{font-size:56.25px;fill:#fff;font-family:News701BT-ItalicA, News701 BT;font-style:italic;}</style><radialGradient id="New_Gradient_Swatch_copy_6" cx="307.51" cy="438.01" r="197.85" gradientUnits="userSpaceOnUse"><stop offset="0" stop-color="#2aa7df"/><stop offset="1" stop-color="#293e8f"/></radialGradient></defs><title>Untitled-1</title><path class="cls-1" d="M597.38,456.57s-138.93-45.78-281.66,27.86c0,0,93.38-85,299.12-50.87Z" transform="translate(-5.48 -91.3)"/><path class="cls-2" d="M582.49,415.31S457.26,385.05,337.24,459.9c0,0,75.89-81.32,258.94-66Z" transform="translate(-5.48 -91.3)"/><path class="cls-3" d="M566.1,381.33s-110.33-17.89-209.2,54.8c0,0,60.27-75.36,219.61-74.26Z" transform="translate(-5.48 -91.3)"/><path class="cls-1" d="M22.94,456.57s138.94-45.78,281.67,27.86c0,0-93.39-85-299.13-50.87Z" transform="translate(-5.48 -91.3)"/><path class="cls-2" d="M37.83,415.31s125.23-30.26,245.25,44.59c0,0-75.89-81.32-258.93-66Z" transform="translate(-5.48 -91.3)"/><path class="cls-3" d="M54.23,381.33s110.32-17.89,209.19,54.8c0,0-60.27-75.36-219.61-74.26Z" transform="translate(-5.48 -91.3)"/><path class="cls-2" d="M223.7,239c41.55,30.9,32.09,110.8,32.09,110.8-70.44-29.3-130.1-12.79-130.1-12.79C247.14,346.64,297,436.13,297,436.13,302.07,263.54,223.7,239,223.7,239Z" transform="translate(-5.48 -91.3)"/><path class="cls-2" d="M197,318.79a1.46,1.46,0,0,0,2.11,1.54l2.85,5.09,1.65-1.88,1.65-1.88-5.43-2.15a1.48,1.48,0,0,0-.41-1.59,1.46,1.46,0,0,0-1.39-.3l-5.39-4.72,8.13-3.79L203,311a19.71,19.71,0,1,0,19.7-21.38l-2.74-2.4,4.76-16.82-30.5,12.76-10.6,33.93,7.51-3.5Z" transform="translate(-5.48 -91.3)"/><path class="cls-1" d="M383.68,239c-41.55,30.9-32.09,110.8-32.09,110.8,70.44-29.3,130.1-12.79,130.1-12.79-121.45,9.59-171.29,99.08-171.29,99.08C305.3,263.54,383.68,239,383.68,239Z" transform="translate(-5.48 -91.3)"/><path class="cls-1" d="M410.34,318.79a1.47,1.47,0,0,1-2.12,1.54l-2.84,5.09-1.65-1.88-1.65-1.88,5.43-2.15a1.46,1.46,0,0,1,1.8-1.89l5.39-4.72-8.13-3.79L404.38,311a19.71,19.71,0,1,1-19.7-21.38l2.74-2.4-4.76-16.82,30.49,12.76,10.61,33.93-7.51-3.5Z" transform="translate(-5.48 -91.3)"/><path class="cls-4" d="M277.36,163c-14.21,35.45,22.56,82,22.56,82,33-45.59,76.88-58.23,76.88-58.23-72.67,52.88-69.49,128.38-69.49,128.38C237.53,208.59,277.36,163,277.36,163Z" transform="translate(-5.48 -91.3)"/><path class="cls-4" d="M324.89,202.81a1.08,1.08,0,0,1-.74,1.78l.18,4.3-1.76-.55-1.76-.54,2.58-3.45a1.07,1.07,0,0,1,.4-1.88l1.57-5.05-6.57.76-.64,2a14.54,14.54,0,1,1-20.64-5.85l.8-2.57-9.48-8.73,24.1-3.74,19.75,17.24-6.07.7Z" transform="translate(-5.48 -91.3)"/><polygon class="cls-4" points="275.71 0 282.19 19.95 303.16 19.95 286.19 32.27 292.67 52.22 275.71 39.89 258.74 52.22 265.22 32.27 248.25 19.95 269.22 19.95 275.71 0"/><polygon class="cls-1" points="425.46 83.65 423.64 97.48 436.23 103.48 422.51 106.02 420.69 119.85 414.04 107.59 400.32 110.14 409.93 100.02 403.27 87.76 415.86 93.77 425.46 83.65"/><polygon class="cls-2" points="182.01 90.55 183.83 104.38 171.24 110.39 184.95 112.93 186.77 126.76 193.43 114.5 207.14 117.04 197.54 106.92 204.2 94.67 191.61 100.67 182.01 90.55"/><rect class="cls-5" x="31.33" y="393.13" width="552.37" height="89.76" rx="12"/><text class="cls-6" transform="translate(51.62 458.63)">STUDENT BOOK </text></svg>