<svg xmlns="http://www.w3.org/2000/svg" xmlns:xlink="http://www.w3.org/1999/xlink" version="1.1" width="1000" height="1000" viewBox="0 0 1000 1000" xml:space="preserve">
<desc>Created with Fabric.js 3.5.0</desc>
<defs>
</defs>
<rect x="0" y="0" width="100%" height="100%" fill="#ffffff"></rect>
<g transform="matrix(1.4919 0 0 1.4919 500.0066 500.0053)" id="844222"  >
<g style="" vector-effect="non-scaling-stroke"   >
		<g transform="matrix(1 0 0 1 155.12 122.2037)" id="Layer_1"  >
<path style="stroke: none; stroke-width: 1; stroke-dasharray: none; stroke-linecap: butt; stroke-dashoffset: 0; stroke-linejoin: miter; stroke-miterlimit: 4; is-custom-font: none; font-file-url: none; fill: rgb(37,144,202); fill-rule: nonzero; opacity: 0.26;"  transform=" translate(-465.28, -454.9537)" d="M 597.38 456.57 s -138.93 -45.78 -281.66 27.86 c 0 0 93.38 -85 299.12 -50.87 Z" stroke-linecap="round" />
</g>
		<g transform="matrix(1 0 0 1 156.55 93.1893)" id="Layer_1"  >
<path style="stroke: none; stroke-width: 1; stroke-dasharray: none; stroke-linecap: butt; stroke-dashoffset: 0; stroke-linejoin: miter; stroke-miterlimit: 4; is-custom-font: none; font-file-url: none; fill: rgb(39,170,225); fill-rule: nonzero; opacity: 0.26;"  transform=" translate(-466.71, -425.9392)" d="M 582.49 415.31 S 457.26 385.05 337.24 459.9 c 0 0 75.89 -81.32 258.94 -66 Z" stroke-linecap="round" />
</g>
		<g transform="matrix(1 0 0 1 156.545 66.2441)" id="Layer_1"  >
<path style="stroke: none; stroke-width: 1; stroke-dasharray: none; stroke-linecap: butt; stroke-dashoffset: 0; stroke-linejoin: miter; stroke-miterlimit: 4; is-custom-font: none; font-file-url: none; fill: rgb(92,202,232); fill-rule: nonzero; opacity: 0.26;"  transform=" translate(-466.705, -398.994)" d="M 566.1 381.33 s -110.33 -17.89 -209.2 54.8 c 0 0 60.27 -75.36 219.61 -74.26 Z" stroke-linecap="round" />
</g>
		<g transform="matrix(1 0 0 1 -155.115 122.2037)" id="Layer_1"  >
<path style="stroke: none; stroke-width: 1; stroke-dasharray: none; stroke-linecap: butt; stroke-dashoffset: 0; stroke-linejoin: miter; stroke-miterlimit: 4; is-custom-font: none; font-file-url: none; fill: rgb(37,144,202); fill-rule: nonzero; opacity: 0.26;"  transform=" translate(-155.045, -454.9537)" d="M 22.94 456.57 s 138.94 -45.78 281.67 27.86 c 0 0 -93.39 -85 -299.13 -50.87 Z" stroke-linecap="round" />
</g>
		<g transform="matrix(1 0 0 1 -156.545 93.1893)" id="Layer_1"  >
<path style="stroke: none; stroke-width: 1; stroke-dasharray: none; stroke-linecap: butt; stroke-dashoffset: 0; stroke-linejoin: miter; stroke-miterlimit: 4; is-custom-font: none; font-file-url: none; fill: rgb(39,170,225); fill-rule: nonzero; opacity: 0.26;"  transform=" translate(-153.615, -425.9392)" d="M 37.83 415.31 s 125.23 -30.26 245.25 44.59 c 0 0 -75.89 -81.32 -258.93 -66 Z" stroke-linecap="round" />
</g>
		<g transform="matrix(1 0 0 1 -156.545 66.2441)" id="Layer_1"  >
<path style="stroke: none; stroke-width: 1; stroke-dasharray: none; stroke-linecap: butt; stroke-dashoffset: 0; stroke-linejoin: miter; stroke-miterlimit: 4; is-custom-font: none; font-file-url: none; fill: rgb(92,202,232); fill-rule: nonzero; opacity: 0.26;"  transform=" translate(-153.615, -398.994)" d="M 54.23 381.33 s 110.32 -17.89 209.19 54.8 c 0 0 -60.27 -75.36 -219.61 -74.26 Z" stroke-linecap="round" />
</g>
		<g transform="matrix(1 0 0 1 -98.6971 4.815)" id="Layer_1"  >
<path style="stroke: none; stroke-width: 1; stroke-dasharray: none; stroke-linecap: butt; stroke-dashoffset: 0; stroke-linejoin: miter; stroke-miterlimit: 4; is-custom-font: none; font-file-url: none; fill: rgb(39,170,225); fill-rule: nonzero; opacity: 0.26;"  transform=" translate(-211.4629, -337.565)" d="M 223.7 239 c 41.55 30.9 32.09 110.8 32.09 110.8 c -70.44 -29.3 -130.1 -12.79 -130.1 -12.79 C 247.14 346.64 297 436.13 297 436.13 C 302.07 263.54 223.7 239 223.7 239 Z" stroke-linecap="round" />
</g>
		<g transform="matrix(1 0 0 1 -97.1754 -33.0298)" id="Layer_1"  >
<path style="stroke: none; stroke-width: 1; stroke-dasharray: none; stroke-linecap: butt; stroke-dashoffset: 0; stroke-linejoin: miter; stroke-miterlimit: 4; is-custom-font: none; font-file-url: none; fill: rgb(39,170,225); fill-rule: nonzero; opacity: 0.26;"  transform=" translate(-212.9846, -299.7202)" d="M 197 318.79 a 1.46 1.46 0 0 0 2.11 1.54 l 2.85 5.09 l 1.65 -1.88 l 1.65 -1.88 l -5.43 -2.15 a 1.48 1.48 0 0 0 -0.41 -1.59 a 1.46 1.46 0 0 0 -1.39 -0.3 l -5.39 -4.72 l 8.13 -3.79 L 203 311 a 19.71 19.71 0 1 0 19.7 -21.38 l -2.74 -2.4 l 4.76 -16.82 l -30.5 12.76 l -10.6 33.93 l 7.51 -3.5 Z" stroke-linecap="round" />
</g>
		<g transform="matrix(1 0 0 1 85.7658 4.795)" id="Layer_1"  >
<path style="stroke: none; stroke-width: 1; stroke-dasharray: none; stroke-linecap: butt; stroke-dashoffset: 0; stroke-linejoin: miter; stroke-miterlimit: 4; is-custom-font: none; font-file-url: none; fill: rgb(37,144,202); fill-rule: nonzero; opacity: 0.26;"  transform=" translate(-395.9257, -337.545)" d="M 383.68 239 c -41.55 30.9 -32.09 110.8 -32.09 110.8 c 70.44 -29.3 130.1 -12.79 130.1 -12.79 c -121.45 9.59 -171.29 99.08 -171.29 99.08 C 305.3 263.54 383.68 239 383.68 239 Z" stroke-linecap="round" />
</g>
		<g transform="matrix(1 0 0 1 84.2354 -33.0298)" id="Layer_1"  >
<path style="stroke: none; stroke-width: 1; stroke-dasharray: none; stroke-linecap: butt; stroke-dashoffset: 0; stroke-linejoin: miter; stroke-miterlimit: 4; is-custom-font: none; font-file-url: none; fill: rgb(37,144,202); fill-rule: nonzero; opacity: 0.26;"  transform=" translate(-394.3954, -299.7202)" d="M 410.34 318.79 a 1.47 1.47 0 0 1 -2.12 1.54 l -2.84 5.09 l -1.65 -1.88 l -1.65 -1.88 l 5.43 -2.15 a 1.46 1.46 0 0 1 1.8 -1.89 l 5.39 -4.72 l -8.13 -3.79 L 404.38 311 a 19.71 19.71 0 1 1 -19.7 -21.38 l 2.74 -2.4 l -4.76 -16.82 l 30.49 12.76 l 10.61 33.93 l -7.51 -3.5 Z" stroke-linecap="round" />
</g>
		<g transform="matrix(1 0 0 1 11.2611 -93.675)" id="Layer_1"  >
<path style="stroke: none; stroke-width: 1; stroke-dasharray: none; stroke-linecap: butt; stroke-dashoffset: 0; stroke-linejoin: miter; stroke-miterlimit: 4; is-custom-font: none; font-file-url: none; fill: rgb(248,167,27); fill-rule: nonzero; opacity: 0.26;"  transform=" translate(-321.4212, -239.075)" d="M 277.36 163 c -14.21 35.45 22.56 82 22.56 82 c 33 -45.59 76.88 -58.23 76.88 -58.23 c -72.67 52.88 -69.49 128.38 -69.49 128.38 C 237.53 208.59 277.36 163 277.36 163 Z" stroke-linecap="round" />
</g>
		<g transform="matrix(1 0 0 1 0.595 -132.4843)" id="Layer_1"  >
<path style="stroke: none; stroke-width: 1; stroke-dasharray: none; stroke-linecap: butt; stroke-dashoffset: 0; stroke-linejoin: miter; stroke-miterlimit: 4; is-custom-font: none; font-file-url: none; fill: rgb(248,167,27); fill-rule: nonzero; opacity: 0.26;"  transform=" translate(-310.755, -200.2657)" d="M 324.89 202.81 a 1.08 1.08 0 0 1 -0.74 1.78 l 0.18 4.3 l -1.76 -0.55 l -1.76 -0.54 l 2.58 -3.45 a 1.07 1.07 0 0 1 0.4 -1.88 l 1.57 -5.05 l -6.57 0.76 l -0.64 2 a 14.54 14.54 0 1 1 -20.64 -5.85 l 0.8 -2.57 l -9.48 -8.73 l 24.1 -3.74 l 19.75 17.24 l -6.07 0.7 Z" stroke-linecap="round" />
</g>
		<g transform="matrix(1 0 0 1 -28.975 -215.34)" id="Layer_1"  >
<polygon style="stroke: none; stroke-width: 1; stroke-dasharray: none; stroke-linecap: butt; stroke-dashoffset: 0; stroke-linejoin: miter; stroke-miterlimit: 4; is-custom-font: none; font-file-url: none; fill: rgb(248,167,27); fill-rule: nonzero; opacity: 0.26;"  points="0.005,-26.11 6.485,-6.16 27.455,-6.16 10.485,6.16 16.965,26.11 0.005,13.78 -16.965,26.11 -10.485,6.16 -27.455,-6.16 -6.485,-6.16 0.005,-26.11 " />
</g>
		<g transform="matrix(1 0 0 1 113.595 -139.7)" id="Layer_1"  >
<polygon style="stroke: none; stroke-width: 1; stroke-dasharray: none; stroke-linecap: butt; stroke-dashoffset: 0; stroke-linejoin: miter; stroke-miterlimit: 4; is-custom-font: none; font-file-url: none; fill: rgb(37,144,202); fill-rule: nonzero; opacity: 0.26;"  points="7.185,-18.1 5.365,-4.27 17.955,1.73 4.235,4.27 2.415,18.1 -4.235,5.84 -17.955,8.39 -8.345,-1.73 -15.005,-13.99 -2.415,-7.98 7.185,-18.1 " />
</g>
		<g transform="matrix(1 0 0 1 -115.49 -132.795)" id="Layer_1"  >
<polygon style="stroke: none; stroke-width: 1; stroke-dasharray: none; stroke-linecap: butt; stroke-dashoffset: 0; stroke-linejoin: miter; stroke-miterlimit: 4; is-custom-font: none; font-file-url: none; fill: rgb(39,170,225); fill-rule: nonzero; opacity: 0.26;"  points="-7.18,-18.105 -5.36,-4.275 -17.95,1.735 -4.24,4.275 -2.42,18.105 4.24,5.845 17.95,8.385 8.35,-1.735 15.01,-13.985 2.42,-7.985 -7.18,-18.105 " />
</g>
		<g transform="matrix(1 0 0 1 2.835 196.56)" id="Layer_1"  >
<radialGradient id="SVGID_2" gradientUnits="userSpaceOnUse" gradientTransform="matrix(1 0 0 1 -307.515 -438.01)"  cx="307.51" cy="438.01" r="197.85" fx="307.51" fy="438.01">
<stop offset="0%" style="stop-color:rgb(42,167,223);stop-opacity: 1"/>
<stop offset="100%" style="stop-color:rgb(41,62,143);stop-opacity: 1"/>
</radialGradient>
<rect style="stroke: none; stroke-width: 1; stroke-dasharray: none; stroke-linecap: butt; stroke-dashoffset: 0; stroke-linejoin: miter; stroke-miterlimit: 4; is-custom-font: none; font-file-url: none; fill: url(#SVGID_2); fill-rule: nonzero; opacity: 0.26;"  x="-276.185" y="-44.88" rx="12" ry="12" width="552.37" height="89.76" />
</g>
		<g transform="matrix(1 0 0 1 -47.5607 199.5582)" style="" id="Layer_1"  >
		<text xml:space="preserve" font-family="News701BT-ItalicA, News701 BT" font-size="56.25" font-style="italic" font-weight="normal" style="stroke: none; stroke-width: 1; stroke-dasharray: none; stroke-linecap: butt; stroke-dashoffset: 0; stroke-linejoin: miter; stroke-miterlimit: 4; is-custom-font: none; font-file-url: none; fill: rgb(255,255,255); fill-rule: nonzero; opacity: 0.26; white-space: pre;" ><tspan x="-205.4993" y="17.6704" >STUDENT BOOK</tspan></text>
</g>
</g>
</g>
</svg>