<?xml version="1.0" standalone="no"?>
<!DOCTYPE svg PUBLIC "-//W3C//DTD SVG 20010904//EN"
 "http://www.w3.org/TR/2001/REC-SVG-20010904/DTD/svg10.dtd">
<svg version="1.0" xmlns="http://www.w3.org/2000/svg"
 width="20pt" height="25.000000pt" viewBox="0 0 500.000000 500.000000"
 preserveAspectRatio="xMidYMid meet">

<g transform="translate(0.000000,500.000000) scale(0.100000,-0.100000)"
fill="#000000" stroke="none">
<path d="M1695 4891 c-58 -14 -106 -44 -150 -93 -79 -88 -75 -24 -75 -1158 l0
-1006 73 -12 c39 -7 82 -15 95 -18 l22 -6 0 1027 0 1027 29 29 29 29 1464 0
c1371 0 1464 -2 1484 -18 12 -9 27 -27 33 -39 16 -32 16 -4272 -1 -4308 -26
-58 41 -55 -1308 -55 l-1241 0 -77 -54 c-43 -30 -116 -73 -162 -95 l-85 -41
1430 2 1430 3 50 27 c60 31 104 77 136 138 l24 45 0 2185 0 2185 -27 50 c-31
60 -77 104 -138 136 l-45 24 -1480 2 c-814 0 -1493 -2 -1510 -6z"/>
<path d="M2052 3808 l3 -93 1118 -3 1117 -2 0 95 0 95 -1120 0 -1121 0 3 -92z"/>
<path d="M2057 3413 c-4 -3 -7 -46 -7 -95 l0 -88 1120 0 1120 0 0 95 0 95
-1113 0 c-613 0 -1117 -3 -1120 -7z"/>
<path d="M2050 2835 l0 -95 1120 0 1120 0 0 95 0 95 -1120 0 -1120 0 0 -95z"/>
<path d="M1185 2529 c-413 -50 -766 -300 -953 -674 -137 -274 -161 -614 -65
-910 75 -234 229 -450 423 -596 141 -107 374 -204 548 -229 133 -20 366 -8
483 23 506 137 857 549 909 1070 48 483 -221 965 -665 1192 -205 104 -459 151
-680 124z m359 -394 c294 -85 502 -293 592 -592 23 -75 27 -107 27 -218 1
-152 -15 -225 -74 -353 -84 -182 -216 -320 -383 -402 -143 -71 -231 -92 -386
-92 -144 0 -239 20 -357 76 -105 50 -179 104 -258 187 -126 133 -201 296 -226
486 -15 117 -1 240 42 367 99 296 364 516 682 567 89 14 244 2 341 -26z"/>
<path d="M1685 1791 c-32 -13 -45 -34 -172 -256 -197 -343 -257 -445 -268
-447 -5 -1 -65 77 -132 173 -67 96 -135 182 -150 191 -77 49 -173 -10 -173
-105 0 -42 13 -61 187 -279 77 -95 174 -217 216 -270 43 -54 81 -98 85 -98 6
0 240 384 480 788 79 133 92 162 92 200 0 37 -6 50 -34 78 -27 27 -42 34 -72
33 -22 0 -48 -4 -59 -8z"/>
</g>
</svg>
