<svg width="135" height="149" viewBox="0 0 135 149" fill="none" xmlns="http://www.w3.org/2000/svg">
<path d="M99.4166 148.833C89.618 148.833 81.2667 145.381 74.3629 138.477C67.4543 131.569 63.9999 123.215 63.9999 113.417C63.9999 103.618 67.4543 95.2644 74.3629 88.3558C81.2667 81.4519 89.618 78 99.4166 78C109.215 78 117.569 81.4519 124.477 88.3558C131.381 95.2644 134.833 103.618 134.833 113.417C134.833 123.215 131.381 131.569 124.477 138.477C117.569 145.381 109.215 148.833 99.4166 148.833ZM108.802 127.76C109.51 128.469 110.337 128.823 111.281 128.823C112.226 128.823 113.052 128.469 113.76 127.76C114.469 127.052 114.823 126.226 114.823 125.281C114.823 124.337 114.469 123.51 113.76 122.802L102.958 112V95.7083C102.958 94.7639 102.604 93.9375 101.896 93.2292C101.187 92.5208 100.361 92.1667 99.4166 92.1667C98.4721 92.1667 97.6457 92.5208 96.9374 93.2292C96.2291 93.9375 95.8749 94.7639 95.8749 95.7083V111.823C95.8749 112.767 96.052 113.683 96.4062 114.571C96.7603 115.454 97.2916 116.25 97.9999 116.958L108.802 127.76ZM14.4167 141.75C10.5208 141.75 7.18458 140.364 4.40791 137.592C1.63597 134.815 0.25 131.479 0.25 127.583V28.4167C0.25 24.5208 1.63597 21.1846 4.40791 18.4079C7.18458 15.636 10.5208 14.25 14.4167 14.25H43.9895C45.5243 10.1181 48.0908 6.72277 51.6891 4.06416C55.2922 1.41027 59.3958 0.0833282 63.9999 0.0833282C68.6041 0.0833282 72.7077 1.41027 76.3108 4.06416C79.9091 6.72277 82.4756 10.1181 84.0103 14.25H113.583C117.479 14.25 120.815 15.636 123.592 18.4079C126.364 21.1846 127.75 24.5208 127.75 28.4167V72.6875C125.625 71.1528 123.382 69.8542 121.021 68.7917C118.66 67.7292 116.18 66.7847 113.583 65.9583V28.4167H99.4166V35.5C99.4166 39.3958 98.0306 42.7297 95.2587 45.5017C92.482 48.2783 89.1458 49.6667 85.2499 49.6667H42.75C38.8541 49.6667 35.5202 48.2783 32.7483 45.5017C29.9716 42.7297 28.5833 39.3958 28.5833 35.5V28.4167H14.4167V127.583H51.9583C52.7847 130.181 53.7291 132.66 54.7916 135.021C55.8541 137.382 57.1527 139.625 58.6875 141.75H14.4167ZM63.9999 28.4167C66.0069 28.4167 67.6904 27.7367 69.0504 26.3767C70.4056 25.0214 71.0833 23.3403 71.0833 21.3333C71.0833 19.3264 70.4056 17.6429 69.0504 16.2829C67.6904 14.9276 66.0069 14.25 63.9999 14.25C61.993 14.25 60.3119 14.9276 58.9566 16.2829C57.5966 17.6429 56.9166 19.3264 56.9166 21.3333C56.9166 23.3403 57.5966 25.0214 58.9566 26.3767C60.3119 27.7367 61.993 28.4167 63.9999 28.4167Z" fill="#0E3746" fill-opacity="0.4"/>
</svg>
