<svg width="219" height="220" viewBox="0 0 219 220" fill="none" xmlns="http://www.w3.org/2000/svg">
<rect width="219" height="220" fill="#E5E5E5"/>
<rect width="1512" height="982" transform="translate(-1185 -606)" fill="white"/>
<rect width="219" height="219.763" rx="18" fill="#2291F1" fill-opacity="0.14"/>
<path opacity="0.3" d="M25.9 39L21.65 54H98.35L94.1 39H25.9Z" fill="#2291F1"/>
<path d="M109.8 57.65L102.65 32.65C102.359 31.6004 101.732 30.6752 100.865 30.0159C99.9983 29.3567 98.9391 28.9998 97.85 29H22.15C19.9 29 17.95 30.5 17.35 32.65L10.2 57.65C9.29999 60.8 11.7 64 15 64H26L20 109H30L33.35 84H86.7L90 109H100L94 64H105C108.3 64 110.7 60.8 109.8 57.65ZM34.65 74L36 64H84L85.35 74H34.65ZM21.65 54L25.95 39H94.1L98.4 54H21.65Z" fill="#2291F1"/>
<path d="M85.028 180.596V182.64H79.904V200H77.356V182.64H72.232V180.596H85.028ZM94.7132 184.376C96.0198 184.376 97.1585 184.684 98.1292 185.3C99.1185 185.916 99.8652 186.719 100.369 187.708V184.628H102.945V200H100.369V196.864C99.8652 197.872 99.1185 198.693 98.1292 199.328C97.1585 199.944 96.0198 200.252 94.7132 200.252C93.3318 200.252 92.0812 199.916 90.9612 199.244C89.8598 198.553 88.9825 197.601 88.3292 196.388C87.6945 195.156 87.3772 193.765 87.3772 192.216C87.3772 190.667 87.6945 189.304 88.3292 188.128C88.9825 186.933 89.8598 186.009 90.9612 185.356C92.0812 184.703 93.3318 184.376 94.7132 184.376ZM95.1612 186.588C94.2465 186.588 93.3878 186.812 92.5852 187.26C91.8012 187.708 91.1665 188.361 90.6812 189.22C90.2145 190.06 89.9812 191.059 89.9812 192.216C89.9812 193.373 90.2145 194.4 90.6812 195.296C91.1665 196.173 91.8012 196.855 92.5852 197.34C93.3878 197.825 94.2465 198.068 95.1612 198.068C96.0945 198.068 96.9532 197.835 97.7372 197.368C98.5398 196.901 99.1745 196.239 99.6412 195.38C100.126 194.503 100.369 193.485 100.369 192.328C100.369 191.171 100.126 190.163 99.6412 189.304C99.1745 188.427 98.5398 187.755 97.7372 187.288C96.9532 186.821 96.0945 186.588 95.1612 186.588ZM115.375 184.376C116.756 184.376 117.998 184.703 119.099 185.356C120.219 186.009 121.096 186.933 121.731 188.128C122.384 189.304 122.711 190.667 122.711 192.216C122.711 193.765 122.384 195.156 121.731 196.388C121.096 197.601 120.219 198.553 119.099 199.244C117.998 199.916 116.756 200.252 115.375 200.252C114.068 200.252 112.92 199.944 111.931 199.328C110.96 198.693 110.214 197.872 109.691 196.864V200H107.143V179.28H109.691V187.708C110.214 186.719 110.96 185.916 111.931 185.3C112.92 184.684 114.068 184.376 115.375 184.376ZM114.871 186.588C113.956 186.588 113.098 186.821 112.295 187.288C111.511 187.755 110.876 188.427 110.391 189.304C109.924 190.163 109.691 191.171 109.691 192.328C109.691 193.485 109.924 194.503 110.391 195.38C110.876 196.239 111.511 196.901 112.295 197.368C113.098 197.835 113.956 198.068 114.871 198.068C115.786 198.068 116.644 197.835 117.447 197.368C118.25 196.883 118.884 196.192 119.351 195.296C119.836 194.4 120.079 193.373 120.079 192.216C120.079 191.059 119.836 190.06 119.351 189.22C118.884 188.361 118.25 187.708 117.447 187.26C116.663 186.812 115.804 186.588 114.871 186.588ZM128.449 179.28V200H125.901V179.28H128.449ZM146.599 191.684C146.599 192.225 146.561 192.729 146.487 193.196H134.251C134.325 194.727 134.801 195.94 135.679 196.836C136.575 197.713 137.713 198.152 139.095 198.152C140.14 198.152 141.017 197.919 141.727 197.452C142.455 196.985 142.987 196.369 143.323 195.604H146.067C145.581 196.948 144.741 198.059 143.547 198.936C142.371 199.813 140.887 200.252 139.095 200.252C137.657 200.252 136.369 199.925 135.231 199.272C134.111 198.619 133.233 197.695 132.599 196.5C131.964 195.287 131.647 193.896 131.647 192.328C131.647 190.741 131.964 189.351 132.599 188.156C133.233 186.943 134.129 186.009 135.287 185.356C136.444 184.703 137.779 184.376 139.291 184.376C140.728 184.376 141.997 184.693 143.099 185.328C144.2 185.963 145.059 186.831 145.675 187.932C146.291 189.033 146.599 190.284 146.599 191.684ZM143.939 191.348C143.939 190.359 143.724 189.5 143.295 188.772C142.865 188.025 142.277 187.456 141.531 187.064C140.803 186.672 139.991 186.476 139.095 186.476C137.769 186.476 136.659 186.915 135.763 187.792C134.867 188.651 134.372 189.836 134.279 191.348H143.939Z" fill="#2291F1"/>
<rect x="-1514.5" y="-1110.5" width="10661" height="2037" stroke="black" stroke-width="27"/>
</svg>
