<svg width="241" height="242" viewBox="0 0 241 242" fill="none" xmlns="http://www.w3.org/2000/svg">
<rect width="241" height="242" fill="#E5E5E5"/>
<rect width="1512" height="982" transform="translate(-918 -625)" fill="white"/>
<rect width="241" height="241.84" rx="18" fill="#2291F1" fill-opacity="0.14"/>
<path d="M105.917 67.1667C105.917 55.6607 95.6564 46.3333 83 46.3333C70.3435 46.3333 60.0833 55.6607 60.0833 67.1667" stroke="#2291F1" stroke-width="2.5" stroke-linecap="round" stroke-linejoin="round"/>
<path d="M47.5833 71.3333C47.5833 69.0321 49.4488 67.1667 51.75 67.1667H114.25C116.551 67.1667 118.417 69.0321 118.417 71.3333V96.3333C118.417 98.6346 116.551 100.5 114.25 100.5H95.5C93.1987 100.5 91.3333 98.6346 91.3333 96.3333C91.3333 94.0321 89.4679 92.1667 87.1667 92.1667H78.8333C76.5321 92.1667 74.6667 94.0321 74.6667 96.3333C74.6667 98.6346 72.8012 100.5 70.5 100.5H51.75C49.4488 100.5 47.5833 98.6346 47.5833 96.3333V71.3333Z" fill="#2F88FF" stroke="#2291F1" stroke-width="2.5" stroke-linecap="round" stroke-linejoin="round"/>
<path d="M53.8333 100.5V129.667H112.167V100.5" stroke="#2291F1" stroke-width="2.5" stroke-linecap="round" stroke-linejoin="round"/>
<path d="M91.3333 92.1667H74.6667V104.667H91.3333V92.1667Z" stroke="#2291F1" stroke-width="2.5" stroke-linecap="round" stroke-linejoin="round"/>
<path d="M104.536 207.032C105.787 207.237 106.795 207.797 107.56 208.712C108.325 209.627 108.708 210.681 108.708 211.876C108.708 212.828 108.447 213.696 107.924 214.48C107.42 215.264 106.683 215.88 105.712 216.328C104.76 216.776 103.649 217 102.38 217H95.1V197.596H102.044C103.369 197.596 104.499 197.82 105.432 198.268C106.365 198.716 107.065 199.332 107.532 200.116C108.017 200.881 108.26 201.759 108.26 202.748C108.26 203.831 107.933 204.736 107.28 205.464C106.627 206.173 105.712 206.696 104.536 207.032ZM97.648 206.024H101.932C103.108 206.024 104.023 205.744 104.676 205.184C105.348 204.605 105.684 203.831 105.684 202.86C105.684 201.871 105.348 201.087 104.676 200.508C104.023 199.929 103.108 199.64 101.932 199.64H97.648V206.024ZM102.24 214.984C103.472 214.984 104.433 214.676 105.124 214.06C105.833 213.444 106.188 212.595 106.188 211.512C106.188 210.448 105.805 209.608 105.04 208.992C104.293 208.376 103.295 208.068 102.044 208.068H97.648V214.984H102.24ZM118.573 201.376C119.879 201.376 121.018 201.684 121.989 202.3C122.978 202.916 123.725 203.719 124.229 204.708V201.628H126.805V217H124.229V213.864C123.725 214.872 122.978 215.693 121.989 216.328C121.018 216.944 119.879 217.252 118.573 217.252C117.191 217.252 115.941 216.916 114.821 216.244C113.719 215.553 112.842 214.601 112.189 213.388C111.554 212.156 111.237 210.765 111.237 209.216C111.237 207.667 111.554 206.304 112.189 205.128C112.842 203.933 113.719 203.009 114.821 202.356C115.941 201.703 117.191 201.376 118.573 201.376ZM119.021 203.588C118.106 203.588 117.247 203.812 116.445 204.26C115.661 204.708 115.026 205.361 114.541 206.22C114.074 207.06 113.841 208.059 113.841 209.216C113.841 210.373 114.074 211.4 114.541 212.296C115.026 213.173 115.661 213.855 116.445 214.34C117.247 214.825 118.106 215.068 119.021 215.068C119.954 215.068 120.813 214.835 121.597 214.368C122.399 213.901 123.034 213.239 123.501 212.38C123.986 211.503 124.229 210.485 124.229 209.328C124.229 208.171 123.986 207.163 123.501 206.304C123.034 205.427 122.399 204.755 121.597 204.288C120.813 203.821 119.954 203.588 119.021 203.588ZM137.33 201.376C138.637 201.376 139.776 201.684 140.746 202.3C141.736 202.916 142.482 203.719 142.986 204.708V201.628H145.562V217.392C145.562 218.792 145.254 220.033 144.638 221.116C144.022 222.199 143.154 223.039 142.034 223.636C140.914 224.252 139.617 224.56 138.142 224.56C136.854 224.56 135.678 224.336 134.614 223.888C133.55 223.459 132.682 222.843 132.01 222.04C131.338 221.237 130.937 220.323 130.806 219.296H133.298C133.541 220.173 134.11 220.901 135.006 221.48C135.902 222.059 136.948 222.348 138.142 222.348C139.598 222.348 140.765 221.909 141.642 221.032C142.538 220.173 142.986 218.96 142.986 217.392V213.864C142.482 214.872 141.736 215.693 140.746 216.328C139.776 216.944 138.637 217.252 137.33 217.252C135.949 217.252 134.698 216.916 133.578 216.244C132.477 215.553 131.6 214.601 130.946 213.388C130.312 212.156 129.994 210.765 129.994 209.216C129.994 207.667 130.312 206.304 130.946 205.128C131.6 203.933 132.477 203.009 133.578 202.356C134.698 201.703 135.949 201.376 137.33 201.376ZM137.778 203.588C136.864 203.588 136.005 203.812 135.202 204.26C134.418 204.708 133.784 205.361 133.298 206.22C132.832 207.06 132.598 208.059 132.598 209.216C132.598 210.373 132.832 211.4 133.298 212.296C133.784 213.173 134.418 213.855 135.202 214.34C136.005 214.825 136.864 215.068 137.778 215.068C138.712 215.068 139.57 214.835 140.354 214.368C141.157 213.901 141.792 213.239 142.258 212.38C142.744 211.503 142.986 210.485 142.986 209.328C142.986 208.171 142.744 207.163 142.258 206.304C141.792 205.427 141.157 204.755 140.354 204.288C139.57 203.821 138.712 203.588 137.778 203.588Z" fill="#2291F1"/>
<rect x="-1247.5" y="-1129.5" width="10661" height="2037" stroke="black" stroke-width="27"/>
</svg>
