<svg xmlns="http://www.w3.org/2000/svg" width="64" height="64"><path d="M11.96 995.362a.5.5 0 0 0-.5.5v6.04a.5.5 0 0 0 .5.5h42.08a.5.5 0 0 0 .5-.5v-6.04a.5.5 0 0 0-.5-.5H11.96zm.5 1h41.08v5.04H52.5v-2.04h-1v2.04h-1v-1.04h-1v1.04h-1v-2.04h-1v2.04h-1v-1.04h-1v1.04h-1v-2.04h-1v2.04h-1v-1.04h-1v1.04h-1v-2.04h-1v2.04h-1v-1.04h-1v1.04h-1v-2.04h-1v2.04h-1v-1.04h-1v1.04h-1v-2.04h-1v2.04h-1v-1.04h-1v1.04h-1v-2.04h-1v2.04h-1v-1.04h-1v1.04h-1v-2.04h-1v2.04h-1v-1.04h-1v1.04h-1v-2.04h-1v2.04h-1v-1.04h-1v1.04h-1v-2.04h-1v2.04h-1v-1.04h-1v1.04h-1.04v-5.04zm-3.96 3a4.503 4.503 0 0 0-3.898 2.25 4.498 4.498 0 0 0-.582 2.588l-.002-.039-.002 4.565a.5.5 0 0 0-.016.13v26.01a.5.5 0 0 0 .012.104 4.495 4.495 0 0 0 4.488 4.39H54v7.506a.5.5 0 0 0 .5.5 4.5 4.5 0 0 0 3.896-2.25 4.495 4.495 0 0 0 .598-2.172.5.5 0 0 0 .006-.088v-34c0-2.484-2.016-4.5-4.5-4.5H9v-4.493a.5.5 0 0 0-.5-.5zm-.5 1.135v4.279a.5.5 0 0 0 0 .16v25.561a4.379 4.379 0 0 0-2.998 1.715c.002-10.86.016-17.36.016-28.05a.5.5 0 0 0-.002-.036 3.501 3.501 0 0 1 .453-2.014c.536-.929 1.49-1.456 2.531-1.615zm1 4.86h45.5c1.948 0 3.5 1.552 3.5 3.5v31.187a4.493 4.493 0 0 0-3.375-1.674.5.5 0 0 0-.125-.014h-46a3.48 3.48 0 0 1-3.498-3.473.5.5 0 0 0 .002-.02c-.001-.615.16-1.218.465-1.75a3.498 3.498 0 0 1 3.031-1.75.5.5 0 0 0 .5-.5v-25.507zm23.5 1.005c-1.1 0-2 .9-2 2s.9 2 2 2h1v1H30a.5.5 0 0 0-.5.5v.5H25a.5.5 0 0 0-.5.5v1l-2.646 2.647a.5.5 0 0 0 0 .707l2.646 2.646v1.5h-3.033a.5.5 0 0 0-.5.5v1.5H19a.5.5 0 0 0-.5.5v3a.5.5 0 0 0 .5.5h2v1.5a.5.5 0 0 0 .5.5h3v1.5a.5.5 0 0 0 .5.5h5.5v.5a.5.5 0 0 0 .5.5h2.5v1h-2c-1.1 0-2 .9-2 2s.9 2 2 2h5c1.1 0 2-.9 2-2s-.9-2-2-2h-2v-1H37a.5.5 0 0 0 .5-.5v-.5h3a.5.5 0 0 0 .5-.5v-3.5h3a.5.5 0 0 0 .5-.5v-3a.5.5 0 0 0-.5-.5h-3v-2h3a.5.5 0 0 0 .5-.5v-3a.5.5 0 0 0-.5-.5h-3v-4.5a.5.5 0 0 0-.5-.5h-2v-.5a.5.5 0 0 0-.5-.5h-3.5v-1h1c1.1 0 2-.9 2-2s-.9-2-2-2h-3zm0 1h3c.563 0 1 .438 1 1 0 .563-.437 1-1 1h-3c-.563 0-1-.437-1-1 0-.562.437-1 1-1zm-2 5h7v.418a.5.5 0 0 0 0 .164v1.418h-7v-2zm-5 1h4v1.5a.5.5 0 0 0 .5.5h8a.5.5 0 0 0 .5-.5v-1.5H40v4h-3a.5.5 0 0 0-.5.5v3a.5.5 0 0 0 .5.5h3v2h-3a.5.5 0 0 0-.5.5v3a.5.5 0 0 0 .5.5h3v3h-2.5v-1.5a.5.5 0 0 0-.5-.5h-6a.5.5 0 0 0-.5.5v1.5h-5v-1h3a.5.5 0 0 0 .5-.5v-1.5h2a.5.5 0 0 0 .5-.5v-3a.5.5 0 0 0-.5-.5h-1.982v-1.5a.5.5 0 0 0-.5-.5H25.5v-1.5l2.646-2.646a.5.5 0 0 0 0-.707l-2.646-2.647v-.5zm-.543 1.46a.5.5 0 0 0 .086 0l2.043 2.04-2.086 2.086-2.086-2.086 2.043-2.04zm12.543 3.54h6v2h-6v-2zm-15.533 4h6.05v1H26a.5.5 0 0 0-.5.5v3a.5.5 0 0 0 .5.5h2v1h-2.922a.5.5 0 0 0-.086-.01.5.5 0 0 0-.074.01H22v-1h2a.5.5 0 0 0 .5-.5v-3a.5.5 0 0 0-.5-.5h-2.033v-1zm-2.467 2h4v2h-1.922a.5.5 0 0 0-.086-.01.5.5 0 0 0-.074.01H19.5v-2zm7 0h4v2h-4v-2zm11 0h6v2h-2.922a.5.5 0 0 0-.086-.01.5.5 0 0 0-.074.01H37.5v-2zm-6 5h5v2h-5v-2zm0 5h5c.563 0 1 .438 1 1 0 .563-.437 1-1 1h-5c-.563 0-1-.437-1-1 0-.562.437-1 1-1zm23.5 5.135c1.041.159 1.995.687 2.531 1.615a3.498 3.498 0 0 1 0 3.5c-.536.929-1.49 1.456-2.531 1.615v-6.73zm-10.008 1.86a.5.5 0 0 0-.074.01H20a.5.5 0 0 0-.22.05l-4.966 1.987a.5.5 0 0 0 0 .927l5 2a.5.5 0 0 0 .147.033.5.5 0 0 0 .004 0 .5.5 0 0 0 .01 0 .5.5 0 0 0 .025 0 .5.5 0 0 0 .01 0h24.914a.5.5 0 0 0 .152 0H49c.822 0 1.5-.677 1.5-1.5v-2c0-.822-.678-1.5-1.5-1.5h-1.965a.5.5 0 0 0-.035 0h-1.922a.5.5 0 0 0-.086-.01zm-24.492 1.005h24v1h-24v-1zm25 0h1v3h-1v-3zm2 0H49c.286 0 .5.215.5.5v2c0 .286-.214.5-.5.5h-1.5v-3zm-28 .238v2.526l-3.154-1.262 3.154-1.264zm1 1.762h24v1h-24v-1z" color="#000" font-family="sans-serif" font-weight="400" overflow="visible" transform="translate(0 -988.362)" style="line-height:normal;text-indent:0;text-align:start;text-decoration-line:none;text-decoration-style:solid;text-decoration-color:#000;text-transform:none;block-progression:tb;white-space:normal;isolation:auto;mix-blend-mode:normal;solid-color:#000;solid-opacity:1"/></svg>