<svg width="219" height="220" viewBox="0 0 219 220" fill="none" xmlns="http://www.w3.org/2000/svg">
<rect width="219" height="220" fill="#E5E5E5"/>
<rect width="1512" height="982" transform="translate(-929 -386)" fill="white"/>
<rect width="219" height="219.763" rx="18" fill="#2291F1" fill-opacity="0.14"/>
<path d="M45 52.75C45 51.7554 45.3951 50.8016 46.0984 50.0984C46.8016 49.3951 47.7555 49 48.75 49H60C60.9946 49 61.9484 49.3951 62.6517 50.0984C63.355 50.8016 63.75 51.7554 63.75 52.75C63.75 53.7446 63.355 54.6984 62.6517 55.4017C61.9484 56.1049 60.9946 56.5 60 56.5V60.25H91.0501L93.9451 51.565C94.1937 50.8186 94.6707 50.1693 95.3087 49.7089C95.9467 49.2486 96.7133 49.0006 97.5001 49H105C105.995 49 106.948 49.3951 107.652 50.0984C108.355 50.8016 108.75 51.7554 108.75 52.75C108.75 53.7446 108.355 54.6984 107.652 55.4017C106.948 56.1049 105.995 56.5 105 56.5H100.2L97.8676 63.5125L103.92 73.1875C109.136 71.0366 114.969 70.9236 120.264 72.8707C125.559 74.8179 129.929 78.6831 132.509 83.7005C135.088 88.7179 135.689 94.5213 134.191 99.9606C132.694 105.4 129.207 110.078 124.423 113.068C119.639 116.058 113.906 117.142 108.361 116.105C102.815 115.067 97.8621 111.984 94.4824 107.467C91.1027 102.95 89.5434 97.3275 90.1134 91.7148C90.6834 86.102 93.3412 80.9081 97.5601 77.1625L93.7501 71.0725L78.1801 95.9876C77.843 96.5269 77.3742 96.9717 76.8179 97.28C76.2617 97.5883 75.6361 97.7501 75.0001 97.7501H59.6925C58.9147 102.349 56.7269 106.593 53.4317 109.894C50.1365 113.195 45.8968 115.39 41.2992 116.176C36.7016 116.962 31.9734 116.3 27.7687 114.281C23.5639 112.262 20.0906 108.987 17.8291 104.907C15.5676 100.828 14.6298 96.1464 15.1455 91.5107C15.6611 86.875 17.6047 82.5141 20.7073 79.0313C23.8099 75.5486 27.9182 73.1162 32.4638 72.0706C37.0093 71.025 41.7675 71.4179 46.08 73.195L52.5 62.92V56.5H48.75C47.7555 56.5 46.8016 56.1049 46.0984 55.4017C45.3951 54.6984 45 53.7446 45 52.75ZM56.25 71.0725L52.44 77.1775C56.19 80.5075 58.815 85.0826 59.6925 90.2501H68.2351L56.25 71.0725ZM75.0001 86.9276L86.9851 67.75H63.015L75.0001 86.9276ZM52.0275 90.2501C51.3895 87.7825 50.1323 85.5186 48.375 83.6726L44.265 90.2501H52.0275ZM42.0225 79.69C39.1614 78.7865 36.095 78.7618 33.2196 79.6191C30.3443 80.4764 27.7921 82.1763 25.8929 84.4991C23.9937 86.822 22.8347 89.661 22.5658 92.6494C22.2969 95.6378 22.9304 98.6381 24.3844 101.263C25.8384 103.887 28.046 106.016 30.7222 107.372C33.3983 108.729 36.4198 109.252 39.3963 108.874C42.3728 108.496 45.1675 107.234 47.4192 105.251C49.6709 103.268 51.2762 100.655 52.0275 97.7501H37.5C36.8306 97.7501 36.1734 97.5709 35.5967 97.2311C35.0199 96.8914 34.5446 96.4034 34.2201 95.818C33.8956 95.2325 33.7337 94.5708 33.7513 93.9016C33.7689 93.2325 33.9652 92.5802 34.32 92.0126L42.0225 79.69ZM101.625 83.665C99.1112 86.3126 97.6491 89.7861 97.513 93.4344C97.3769 97.0828 98.5761 100.656 100.886 103.483C103.195 106.311 106.457 108.199 110.059 108.793C113.661 109.388 117.357 108.649 120.453 106.714C123.549 104.779 125.833 101.781 126.876 98.2825C127.92 94.784 127.652 91.0249 126.123 87.7098C124.594 84.3947 121.908 81.7512 118.568 80.2748C115.229 78.7984 111.466 78.5905 107.985 79.69L115.68 92.0126C115.941 92.4302 116.117 92.8951 116.199 93.3808C116.28 93.8665 116.265 94.3634 116.154 94.8433C116.043 95.3231 115.839 95.7765 115.553 96.1774C115.267 96.5784 114.905 96.9191 114.488 97.1801C114.07 97.4411 113.605 97.6173 113.119 97.6986C112.634 97.7799 112.137 97.7648 111.657 97.654C111.177 97.5433 110.724 97.3391 110.323 97.0532C109.922 96.7673 109.581 96.4052 109.32 95.9876L101.625 83.6726V83.665Z" fill="#2291F1"/>
<path d="M72.536 174.032C73.7867 174.237 74.7947 174.797 75.56 175.712C76.3253 176.627 76.708 177.681 76.708 178.876C76.708 179.828 76.4467 180.696 75.924 181.48C75.42 182.264 74.6827 182.88 73.712 183.328C72.76 183.776 71.6493 184 70.38 184H63.1V164.596H70.044C71.3693 164.596 72.4987 164.82 73.432 165.268C74.3653 165.716 75.0653 166.332 75.532 167.116C76.0173 167.881 76.26 168.759 76.26 169.748C76.26 170.831 75.9333 171.736 75.28 172.464C74.6267 173.173 73.712 173.696 72.536 174.032ZM65.648 173.024H69.932C71.108 173.024 72.0227 172.744 72.676 172.184C73.348 171.605 73.684 170.831 73.684 169.86C73.684 168.871 73.348 168.087 72.676 167.508C72.0227 166.929 71.108 166.64 69.932 166.64H65.648V173.024ZM70.24 181.984C71.472 181.984 72.4333 181.676 73.124 181.06C73.8333 180.444 74.188 179.595 74.188 178.512C74.188 177.448 73.8053 176.608 73.04 175.992C72.2933 175.376 71.2947 175.068 70.044 175.068H65.648V181.984H70.24ZM79.8245 164.428C79.8245 163.943 79.9925 163.532 80.3285 163.196C80.6645 162.86 81.0659 162.692 81.5325 162.692C82.0179 162.692 82.4285 162.86 82.7645 163.196C83.1005 163.532 83.2685 163.943 83.2685 164.428C83.2685 164.913 83.1005 165.324 82.7645 165.66C82.4285 165.996 82.0179 166.164 81.5325 166.164C81.0472 166.164 80.6365 165.996 80.3005 165.66C79.9832 165.324 79.8245 164.913 79.8245 164.428ZM82.7925 168.628V184H80.2445V168.628H82.7925ZM93.4384 168.376C95.2864 168.376 96.7891 168.805 97.9464 169.664C99.1224 170.523 99.9438 171.745 100.41 173.332H97.6664C97.3678 172.436 96.8544 171.736 96.1264 171.232C95.3984 170.728 94.5024 170.476 93.4384 170.476C91.9824 170.476 90.8064 170.989 89.9104 172.016C89.0331 173.024 88.5944 174.461 88.5944 176.328C88.5944 178.176 89.0331 179.613 89.9104 180.64C90.8064 181.648 91.9824 182.152 93.4384 182.152C94.5211 182.152 95.4171 181.909 96.1264 181.424C96.8358 180.939 97.3491 180.229 97.6664 179.296H100.41C99.9438 180.808 99.1131 182.012 97.9184 182.908C96.7424 183.804 95.2491 184.252 93.4384 184.252C92.0011 184.252 90.7131 183.925 89.5744 183.272C88.4544 182.619 87.5771 181.695 86.9424 180.5C86.3078 179.287 85.9904 177.896 85.9904 176.328C85.9904 174.741 86.3078 173.351 86.9424 172.156C87.5771 170.943 88.4544 170.009 89.5744 169.356C90.6944 168.703 91.9824 168.376 93.4384 168.376ZM104.824 168.628L109.528 181.06L114.316 168.628H116.948L107.68 191.196H105.048L108.1 183.748L102.024 168.628H104.824ZM125.813 168.376C127.661 168.376 129.164 168.805 130.321 169.664C131.497 170.523 132.319 171.745 132.785 173.332H130.041C129.743 172.436 129.229 171.736 128.501 171.232C127.773 170.728 126.877 170.476 125.813 170.476C124.357 170.476 123.181 170.989 122.285 172.016C121.408 173.024 120.969 174.461 120.969 176.328C120.969 178.176 121.408 179.613 122.285 180.64C123.181 181.648 124.357 182.152 125.813 182.152C126.896 182.152 127.792 181.909 128.501 181.424C129.211 180.939 129.724 180.229 130.041 179.296H132.785C132.319 180.808 131.488 182.012 130.293 182.908C129.117 183.804 127.624 184.252 125.813 184.252C124.376 184.252 123.088 183.925 121.949 183.272C120.829 182.619 119.952 181.695 119.317 180.5C118.683 179.287 118.365 177.896 118.365 176.328C118.365 174.741 118.683 173.351 119.317 172.156C119.952 170.943 120.829 170.009 121.949 169.356C123.069 168.703 124.357 168.376 125.813 168.376ZM138.711 163.28V184H136.163V163.28H138.711ZM156.86 175.684C156.86 176.225 156.823 176.729 156.748 177.196H144.512C144.587 178.727 145.063 179.94 145.94 180.836C146.836 181.713 147.975 182.152 149.356 182.152C150.402 182.152 151.279 181.919 151.988 181.452C152.716 180.985 153.248 180.369 153.584 179.604H156.328C155.843 180.948 155.003 182.059 153.808 182.936C152.632 183.813 151.148 184.252 149.356 184.252C147.919 184.252 146.631 183.925 145.492 183.272C144.372 182.619 143.495 181.695 142.86 180.5C142.226 179.287 141.908 177.896 141.908 176.328C141.908 174.741 142.226 173.351 142.86 172.156C143.495 170.943 144.391 170.009 145.548 169.356C146.706 168.703 148.04 168.376 149.552 168.376C150.99 168.376 152.259 168.693 153.36 169.328C154.462 169.963 155.32 170.831 155.936 171.932C156.552 173.033 156.86 174.284 156.86 175.684ZM154.2 175.348C154.2 174.359 153.986 173.5 153.556 172.772C153.127 172.025 152.539 171.456 151.792 171.064C151.064 170.672 150.252 170.476 149.356 170.476C148.031 170.476 146.92 170.915 146.024 171.792C145.128 172.651 144.634 173.836 144.54 175.348H154.2Z" fill="#2291F1"/>
<rect x="-1258.5" y="-890.5" width="10661" height="2037" stroke="black" stroke-width="27"/>
</svg>
