<svg xmlns="http://www.w3.org/2000/svg" width="550" height="550"><path d="M495.334 379.444c-28.363-28.608-66.151-44.363-106.404-44.363h-20.608a10 10 0 0 0-8.046 4.062c-17.505 23.714-45.522 37.872-74.948 37.872h-21.454c-29.426 0-57.444-14.158-74.95-37.873a9.998 9.998 0 0 0-8.045-4.061h-19.103c-40.317 0-78.354 15.736-107.105 44.311C25.864 408.021 10 445.961 10 486.225v44.614c0 5.522 4.478 10 10 10h509.199c5.522 0 10-4.478 10-10v-44.614c0-40.329-15.578-78.25-43.865-106.781zm23.865 141.395H30v-34.614c0-34.897 13.769-67.801 38.769-92.647 24.979-24.824 58.009-38.496 93.007-38.496h14.201c21.383 26.35 53.862 41.934 87.896 41.934h21.454c34.034 0 66.514-15.584 87.896-41.934h15.707c71.831 0 130.27 58.831 130.27 131.144v34.613z"/><path d="M96.401 91.713 151 111.475v56.896c0 .971.074 1.915.193 2.843v52.934c0 62.354 50.729 113.082 113.082 113.082h21.478c62.354 0 113.082-50.729 113.082-113.082V169.72c0-2.216-.078-4.53-.22-6.879v-51.389l15.062-5.487v48.343c0 5.522 4.478 10 10 10s10-4.478 10-10V98.679l19.142-6.974a9.998 9.998 0 0 0-.02-18.799L277.434 9.436a9.995 9.995 0 0 0-6.826.008L96.382 72.914a9.998 9.998 0 0 0 .019 18.799zm175.366 63.473c1.1.397 2.251.597 3.403.597.036 0 .072-.005.107-.005a9.968 9.968 0 0 0 3.522-.6l99.815-36.363v49.555c0 1.951-4.839 9.044-26.34 15.819-20.55 6.475-48.062 10.041-77.468 10.041-1.796 0-3.584-.014-5.364-.041-1.006-.015-2.004-.043-3.005-.066-.755-.018-1.513-.029-2.264-.052-1.345-.04-2.681-.094-4.015-.149-.391-.016-.783-.027-1.172-.045-1.533-.068-3.056-.15-4.572-.238-.178-.011-.358-.019-.537-.029-1.648-.1-3.287-.21-4.915-.333l-.116-.008c-8.363-.632-16.43-1.569-24.049-2.793a248.864 248.864 0 0 1-4.384-.747l-.359-.063a224.829 224.829 0 0 1-9.004-1.824 191.253 191.253 0 0 1-7.009-1.72c-.514-.138-1.025-.276-1.531-.416-.777-.216-1.546-.435-2.307-.657-.904-.265-1.809-.53-2.689-.807-12.252-3.847-19.684-8.088-23.446-11.424-1.854-1.674-2.714-3.036-2.976-3.909-.022-.084-.045-.167-.06-.247l-.007-.03a1.523 1.523 0 0 1-.027-.262v-49.656l100.769 36.472zm107.068 68.96c0 51.325-41.757 93.082-93.082 93.082h-21.478c-51.325 0-93.082-41.757-93.082-93.082v-29.173c4.236 2.323 9.15 4.475 14.702 6.459l.38.136c.481.171.963.342 1.454.511.825.283 1.644.555 2.459.819l.431.138.709.229c.301.095.618.183.922.276.475.146.938.296 1.421.44.285.085.585.164.872.249a184.727 184.727 0 0 0 4.264 1.192 216.907 216.907 0 0 0 4.36 1.109 200.998 200.998 0 0 0 4.457 1.029c1.085.239 2.177.473 3.282.698.422.087.848.171 1.272.256 1.204.24 2.418.474 3.646.699.338.062.68.122 1.02.184 1.318.236 2.646.466 3.99.686.262.043.525.084.789.126 1.42.229 2.852.449 4.299.658l.607.086c1.508.215 3.024.421 4.557.615.158.021.316.038.475.058 1.573.197 3.156.385 4.756.561.141.016.283.029.425.044 1.61.175 3.229.339 4.862.491.168.016.338.029.506.045 1.607.146 3.222.285 4.85.41.23.018.465.032.695.049 1.569.118 3.144.229 4.73.326.34.021.684.036 1.023.056 1.482.087 2.968.169 4.464.237.543.025 1.091.042 1.636.064 1.307.054 2.611.108 3.928.148.891.027 1.789.042 2.685.062.985.022 1.967.052 2.956.066 1.904.029 3.814.045 5.731.045 31.39 0 61.037-3.895 83.479-10.966a136.846 136.846 0 0 0 2.853-.933c.736-.249 1.476-.504 2.217-.769l.118-.041a122.7 122.7 0 0 0 2.331-.862l.554-.212a119.976 119.976 0 0 0 2.37-.94 113.555 113.555 0 0 0 2.852-1.222 92.001 92.001 0 0 0 2.02-.924c.108-.051.218-.1.325-.151a87.755 87.755 0 0 0 2.238-1.107c.168-.086.334-.174.502-.261a80.288 80.288 0 0 0 1.903-1.021c.088-.049.179-.094.266-.143v29.468zM274.041 29.478l143.027 51.767-141.841-8.915c-5.499-.358-10.261 3.841-10.607 9.354-.347 5.512 3.841 10.261 9.354 10.607l101.331 6.369-100.043 36.446L164.403 94.98c-.37-.134-.747-.243-1.126-.332l-34.175-12.369 144.939-52.801z"/><path d="M423.678 170.168c-5.522 0-10 4.478-10 10v22.542c0 5.522 4.478 10 10 10s10-4.478 10-10v-22.542c0-5.522-4.478-10-10-10z"/></svg>